<svg width="16" height="17" viewBox="0 0 16 17" fill="none" xmlns="http://www.w3.org/2000/svg">
<path d="M9.06193 8.88094L12.0307 5.91219C12.1716 5.77154 12.2508 5.58068 12.251 5.3816C12.2512 5.18252 12.1723 4.99152 12.0316 4.85063C11.891 4.70973 11.7001 4.63048 11.501 4.6303C11.3019 4.63013 11.1109 4.70904 10.9701 4.84969L8.0013 7.81844L5.03255 4.84969C4.89165 4.70879 4.70056 4.62964 4.5013 4.62964C4.30204 4.62964 4.11095 4.70879 3.97005 4.84969C3.82915 4.99059 3.75 5.18168 3.75 5.38094C3.75 5.5802 3.82915 5.77129 3.97005 5.91219L6.9388 8.88094L3.97005 11.8497C3.82915 11.9906 3.75 12.1817 3.75 12.3809C3.75 12.5802 3.82915 12.7713 3.97005 12.9122C4.11095 13.0531 4.30204 13.1322 4.5013 13.1322C4.70056 13.1322 4.89165 13.0531 5.03255 12.9122L8.0013 9.94344L10.9701 12.9122C11.1109 13.0531 11.302 13.1322 11.5013 13.1322C11.7006 13.1322 11.8917 13.0531 12.0326 12.9122C12.1734 12.7713 12.2526 12.5802 12.2526 12.3809C12.2526 12.1817 12.1734 11.9906 12.0326 11.8497L9.06193 8.88094Z" fill="currentColor"/>
</svg>
