<svg width="74" height="74" viewBox="0 0 74 74" fill="none" xmlns="http://www.w3.org/2000/svg">
<path d="M29 26H48L45 32H26L29 26Z" fill="#FF6C23"/>
<path d="M29 34H48L45 40H26L29 34Z" fill="#FF6C23"/>
<path d="M29 42H48L45 48H26L29 42Z" fill="#FF6C23"/>
<path d="M37 72.5C17.3939 72.5 1.5 56.6061 1.5 37H0.5C0.5 57.1584 16.8416 73.5 37 73.5V72.5ZM72.5 37C72.5 56.6061 56.6061 72.5 37 72.5V73.5C57.1584 73.5 73.5 57.1584 73.5 37H72.5ZM37 1.5C56.6061 1.5 72.5 17.3939 72.5 37H73.5C73.5 16.8416 57.1584 0.5 37 0.5V1.5ZM37 0.5C16.8416 0.5 0.5 16.8416 0.5 37H1.5C1.5 17.3939 17.3939 1.5 37 1.5V0.5Z" fill="#E45B3F"/>
</svg>
