<svg width="103" height="34" viewBox="0 0 103 34" fill="none" xmlns="http://www.w3.org/2000/svg">
<path d="M52.2241 24.256C50.1517 23.9649 48.3958 23.5373 48.3958 22.0073C48.3958 20.4992 49.9278 19.6206 52.0423 19.6206C53.6854 19.6442 55.1938 20.2955 55.9363 21.3778L57.8504 20.0952C56.5221 17.9795 54.2477 17.4392 51.975 17.4392C49.1399 17.4392 45.8756 18.6982 45.8992 21.9619C45.8992 25.3383 48.8706 26.126 51.9985 26.5536C54.2039 26.8448 56.0272 27.4305 56.0272 29.1406C56.0272 31.1183 53.9329 31.7495 52.0423 31.7495C50.2191 31.7495 48.2628 31.0746 47.1365 29.1625L45.246 30.4215C46.6871 33.0775 49.0036 33.9999 52.0204 33.9999C55.3066 33.9999 58.5238 32.6736 58.5474 29.1406C58.5491 25.6076 55.4649 24.7071 52.2241 24.256Z" fill="white"/>
<path d="M72.6594 17.8887H59.7856V20.1626H64.9624V33.6414H67.5062V20.1626H72.6594V17.8887Z" fill="white"/>
<path d="M99.3998 17.8887L94.9234 24.8418L90.5765 17.8887H87.5833V18.0014L93.6607 27.1831V33.6414H96.1826V27.1831L102.439 18.0014V17.8887H99.3998Z" fill="white"/>
<path d="M67.2629 6.38245L63.0524 0.405518H60.6837V13.1606H62.7241V3.37631L67.0087 9.4071H67.4464L71.7831 3.37631V13.1606H73.8235V0.405518H71.4548L67.2629 6.38245Z" fill="white"/>
<path d="M84.0128 8.5318C86.528 8.16655 87.4758 6.38071 87.4758 4.55952C87.4758 2.41012 85.9269 0.388632 82.9741 0.388632C80.9875 0.388632 79.0195 0.370117 77.033 0.370117V13.1437H79.0734V8.73378H81.7704L85.6525 13.1437H88.0397L87.8226 12.7784L84.0128 8.5318ZM79.0751 6.87388V2.24517H82.9741C84.6508 2.24517 85.3983 3.44695 85.3983 4.59487C85.3983 5.79834 84.6508 6.8722 82.9572 6.8722H79.0751V6.87388Z" fill="white"/>
<path d="M95.9501 0.151367C92.1033 0.151367 89.3878 2.95721 89.3878 6.83859C89.3878 10.1915 91.4838 13.4164 95.9131 13.4164C100.342 13.4164 102.438 10.2638 102.438 6.82008C102.438 3.37632 100.305 0.168199 95.9501 0.151367ZM92.5781 4.84909C93.3255 3.97384 94.4114 3.45374 95.5511 3.3578V3.02454H94.8878V2.53305H96.94V3.02454H96.2767V3.3578C97.4165 3.45374 98.5023 3.97384 99.2498 4.84909C99.7464 5.42978 100.024 6.098 100.039 6.88741H95.9148H91.7902C91.8036 6.098 92.0814 5.42978 92.5781 4.84909ZM91.3929 7.73236C91.3929 7.29473 91.3929 7.29473 91.8356 7.29473H95.9131H99.9906C100.433 7.29473 100.433 7.29473 100.433 7.73236V8.07572H95.9131H91.3929V7.73236ZM100.831 9.38691C100.831 9.73028 100.553 10.008 100.209 10.008H95.9148H91.6201C91.2767 10.008 90.9989 9.73028 90.9989 9.38691C90.9989 8.93414 91.1134 8.82137 91.5696 8.82137C93.0191 8.82137 94.467 8.82137 95.9165 8.82137C97.366 8.82137 98.8138 8.82137 100.263 8.82137C100.716 8.82137 100.829 8.93414 100.831 9.38691Z" fill="white"/>
<path d="M58.9161 13.142L53.1921 0.388672H50.9682L45.246 13.1437H48.2544V11.4959C48.2544 10.486 48.9951 9.6461 49.9615 9.49125V8.30798C49.9615 8.2457 49.9935 8.19016 50.0473 8.15986C50.1012 8.12956 50.1652 8.12956 50.2191 8.16323L52.0827 9.29768L53.943 8.16323C53.98 8.14135 54.0238 8.13293 54.0642 8.14135C54.081 8.14639 54.0979 8.15144 54.113 8.15986C54.1686 8.19016 54.2006 8.2457 54.2006 8.30798V9.48956C54.3521 9.51313 54.4985 9.55521 54.6366 9.61075C54.778 9.6663 54.9093 9.73867 55.0305 9.82451C55.5608 10.1914 55.9093 10.8041 55.9093 11.4959V13.142H58.9161ZM53.6063 6.49352C53.5995 6.6063 53.5827 6.7157 53.5524 6.82006C53.3723 7.46639 52.783 7.93936 52.0827 7.93936C51.2409 7.93936 50.5558 7.25432 50.5558 6.41273C50.5558 5.57115 51.2409 4.8861 52.0827 4.8861C52.3807 4.8861 52.6585 4.97194 52.8942 5.12174C52.9598 5.16214 53.0204 5.20758 53.0777 5.25808C53.4026 5.53748 53.6096 5.95154 53.6096 6.41273C53.6096 6.43798 53.608 6.46659 53.6063 6.49352Z" fill="white"/>
<path d="M52.0844 9.69653L50.884 10.4287L52.0844 12.7767L53.283 10.4287L52.0844 9.69653Z" fill="white"/>
<path d="M50.2208 10.8312C50.1938 10.848 50.1635 10.8564 50.1332 10.8564C50.1029 10.8564 50.076 10.8497 50.049 10.8345C49.9952 10.8042 49.9632 10.7487 49.9632 10.6881V9.83472C49.1854 9.9862 48.5945 10.6729 48.5945 11.4977V13.1438H51.8908L50.5945 10.6039L50.2208 10.8312Z" fill="white"/>
<path d="M54.8256 10.092C54.6404 9.96576 54.4299 9.87655 54.2027 9.83447V10.6878C54.2027 10.7484 54.1707 10.8057 54.1151 10.8343C54.0899 10.8494 54.0613 10.8562 54.0343 10.8562C54.004 10.8562 53.9737 10.8477 53.9451 10.8309L53.573 10.602L52.2767 13.1419H55.573V11.4958C55.573 10.9117 55.2751 10.395 54.8256 10.092Z" fill="white"/>
<path d="M52.8207 5.55582C52.7786 5.51879 52.7332 5.48513 52.6843 5.45483C52.5109 5.34375 52.3039 5.27979 52.0833 5.27979C51.4587 5.27979 50.9503 5.7881 50.9503 6.41256C50.9503 7.03701 51.4587 7.54533 52.0833 7.54533C52.6035 7.54533 53.0412 7.19523 53.1742 6.71553C53.1961 6.6381 53.2096 6.55731 53.2146 6.47315C53.2163 6.45295 53.2163 6.43276 53.2163 6.41256C53.2163 6.06919 53.0614 5.76117 52.8207 5.55582Z" fill="white"/>
<path d="M0 33.7239H1.28115V4.73975L0 5.87757V33.7239Z" fill="white"/>
<path d="M2.66785 33.7239H3.949V2.36987L2.66785 3.50769V33.7239Z" fill="white"/>
<path d="M5.3374 33.724H6.61855V0L5.3374 1.13782V33.724Z" fill="white"/>
<path d="M39.8986 33.7239H41.1797V5.87757L39.8986 4.73975V33.7239Z" fill="white"/>
<path d="M37.2308 33.7239H38.512V3.50769L37.2308 2.36987V33.7239Z" fill="white"/>
<path d="M34.5627 33.724H35.8439V1.13782L34.5627 0V33.724Z" fill="white"/>
<path d="M27.5894 14.6924H13.591V5.20772L8.00513 0V33.724H13.591V19.7049H27.5894V33.724H33.1753V0L27.5894 5.20772V14.6924Z" fill="white"/>
<path d="M80.7456 29.6927C80.685 28.9555 80.6277 28.2166 80.5688 27.4793C80.5655 27.4423 80.5537 27.407 80.5251 27.3733C80.4762 27.9641 80.4291 28.5549 80.3786 29.1474C80.3449 29.5614 80.3096 29.9755 80.2692 30.3878C80.2624 30.4619 80.2456 30.5309 80.2203 30.5949H80.8584C80.8399 30.5494 80.8264 30.5006 80.818 30.4484C80.7826 30.1976 80.7658 29.9435 80.7456 29.6927Z" fill="white"/>
<path d="M82.5846 27.2941C82.7546 27.2739 82.8035 27.1982 82.7934 27.0433C82.7698 26.7252 82.8843 26.3785 82.7412 26.0957C82.5998 25.818 82.3792 25.5723 82.2008 25.3063C82.1301 25.202 82.0678 25.0892 81.96 24.9983C81.9078 25.0808 81.9264 25.1616 81.9264 25.2356C81.9247 26.8632 81.9264 28.4925 81.9264 30.1202C81.9264 30.238 81.928 30.3558 81.8994 30.472C81.8893 30.514 81.8758 30.5527 81.859 30.5915H82.1469C82.093 30.5073 82.0644 30.4097 82.0627 30.2969C82.056 29.4772 82.0543 28.6575 82.0627 27.8378C82.0644 27.555 82.2782 27.3312 82.5846 27.2941Z" fill="white"/>
<path d="M89.4494 32.6904L83.0049 18.3027L82.8315 17.9155H79.4779L79.3045 18.3027L72.8601 32.6904L72.4459 33.6161H76.3247L76.4981 33.229L77.68 30.5932H79.2271V30.5915C79.1682 30.4484 79.1648 30.2969 79.1648 30.1437C79.1648 28.5111 79.1665 26.8767 79.1648 25.2424C79.1648 25.1666 79.1833 25.0858 79.1227 24.9815C78.9426 25.2457 78.7742 25.4898 78.6076 25.7338C78.5604 25.8029 78.515 25.8752 78.4628 25.9409C78.2675 26.1933 78.0301 26.2203 77.7406 26.0233C77.4998 25.8601 77.4426 25.6211 77.6126 25.3652C77.9762 24.8182 78.3584 24.2846 78.7204 23.7376C78.9173 23.4397 79.1396 23.162 79.2709 22.8186C79.4039 22.4719 79.7018 22.28 80.0739 22.2278C80.3517 22.1891 80.6345 22.1891 80.9123 22.2127C81.35 22.248 81.6732 22.4719 81.8416 22.8826C81.9224 23.0778 82.0369 23.2478 82.153 23.4195C82.5655 24.0271 82.983 24.6331 83.3955 25.2407C83.4796 25.3635 83.5672 25.4578 83.7322 25.4864C83.9477 25.5234 84.0487 25.68 84.052 25.9173C84.0554 26.2994 84.0571 26.6815 84.0504 27.0635C84.0487 27.2066 84.0908 27.2723 84.2456 27.2891C84.5941 27.3295 84.786 27.55 84.7894 27.9018C84.7945 28.6828 84.7911 29.4621 84.7911 30.2431C84.7911 30.4131 84.744 30.5544 84.6446 30.6638L85.8113 33.2273L85.9847 33.6111H89.8601L89.4494 32.6904ZM81.3921 21.5562C81.3736 21.5832 81.3551 21.6084 81.3332 21.632C81.1412 21.8575 80.8483 21.9955 80.5183 21.9871C79.9493 21.9736 79.5015 21.531 79.5049 20.9856C79.5066 20.7079 79.6244 20.4537 79.813 20.2669C79.8247 20.2551 79.8365 20.2433 79.8483 20.2332C79.8601 20.2215 79.8736 20.2114 79.8853 20.2013C79.9493 20.1491 80.0183 20.1053 80.0941 20.0683C80.1379 20.0464 80.185 20.0279 80.2338 20.0128C80.3365 19.9808 80.446 19.9639 80.5588 19.9673C80.6985 19.9707 80.8315 20.001 80.951 20.0532C81.0116 20.0801 81.0689 20.1121 81.1227 20.1491C81.1497 20.1676 81.1749 20.1878 81.2002 20.208C81.2254 20.2282 81.249 20.2501 81.2726 20.2736C81.3062 20.3073 81.3382 20.3443 81.3668 20.3831C81.4342 20.4739 81.488 20.5749 81.5217 20.6843C81.5268 20.6995 81.5301 20.7146 81.5352 20.7315C81.5352 20.7315 81.5352 20.7315 81.5352 20.7332C81.5571 20.8173 81.5672 20.9048 81.5655 20.9957C81.5638 21.1523 81.5251 21.3004 81.4611 21.4317C81.4443 21.4754 81.4207 21.5158 81.3921 21.5562Z" fill="white"/>
<path d="M83.5403 28.3613C83.5386 28.2821 83.5336 28.1896 83.4292 28.1845C83.3231 28.1795 83.308 28.272 83.308 28.3528C83.3046 28.8342 83.3046 29.3139 83.3063 29.7953C83.3063 29.8761 83.3214 29.9653 83.4275 29.962C83.5336 29.9586 83.5403 29.8677 83.5403 29.7869C83.542 29.5462 83.542 29.3055 83.5403 29.0648C83.542 28.8309 83.5437 28.5969 83.5403 28.3613Z" fill="white"/>
<path d="M84.2766 28.2029C84.1857 28.1895 84.1469 28.2551 84.1301 28.3325C84.1116 28.4201 84.0964 28.5093 84.0813 28.5968C84.019 29.0008 83.9567 29.4064 83.8944 29.8087C83.8944 29.8844 83.9129 29.9484 83.9971 29.9585C84.0729 29.9669 84.1099 29.9113 84.1234 29.8491C84.1486 29.7346 84.1655 29.6168 84.1857 29.5007C84.2463 29.1236 84.3086 28.7483 84.3658 28.3713C84.3776 28.2972 84.3742 28.2164 84.2766 28.2029Z" fill="white"/>
<path d="M82.5796 28.2049C82.4954 28.2234 82.4836 28.2907 82.4954 28.3631C82.5224 28.5415 82.5476 28.7182 82.5779 28.8966C82.6284 29.2063 82.6806 29.5161 82.7362 29.8258C82.748 29.8931 82.7766 29.9638 82.8641 29.9554C82.9483 29.9469 82.9651 29.8796 82.9736 29.8039C82.8911 29.3057 82.8103 28.8074 82.7244 28.3092C82.7092 28.2352 82.6621 28.1863 82.5796 28.2049Z" fill="white"/>
<path d="M83.7133 26.5553C83.7133 26.3702 83.715 26.185 83.7133 25.9999C83.7116 25.9393 83.7167 25.8686 83.6494 25.8366C83.577 25.8029 83.5382 25.8618 83.4978 25.909C83.4372 25.978 83.3615 26.0251 83.2824 26.0672C83.1763 26.1244 83.1308 26.2052 83.1342 26.3264C83.1393 26.5166 83.1359 26.7068 83.1359 26.8987C83.1359 27.2993 83.1426 27.3009 83.5382 27.2824C83.6696 27.2757 83.7167 27.2168 83.715 27.0939C83.7116 26.9138 83.7133 26.7354 83.7133 26.5553Z" fill="white"/>
</svg>
