<svg width="16" height="17" viewBox="0 0 16 17" fill="none" xmlns="http://www.w3.org/2000/svg">
<g clip-path="url(#clip0_518_1433)">
<path d="M6.80533 12.8809C6.50111 12.8809 6.21298 12.7648 6.02835 12.5648L3.5296 9.86686C3.45234 9.78354 3.39594 9.6886 3.36362 9.58745C3.3313 9.48631 3.32369 9.38095 3.34122 9.2774C3.35876 9.17385 3.4011 9.07415 3.46582 8.98398C3.53054 8.89381 3.61638 8.81495 3.71842 8.7519C3.82042 8.6886 3.93672 8.64236 4.06063 8.61585C4.18454 8.58934 4.31364 8.58307 4.44052 8.5974C4.5674 8.61174 4.68958 8.64639 4.80004 8.69938C4.9105 8.75237 5.00708 8.82266 5.08424 8.9062L6.7284 10.6801L10.8622 5.25558C10.9993 5.07647 11.2178 4.94912 11.4696 4.90144C11.7215 4.85377 11.9862 4.88967 12.2057 5.00127C12.6623 5.23329 12.8029 5.72476 12.5176 6.09851L7.63335 12.5048C7.54997 12.6147 7.43505 12.7062 7.29856 12.7716C7.16206 12.8369 7.00812 12.874 6.85008 12.8797C6.8347 12.8809 6.82071 12.8809 6.80533 12.8809Z" fill="currentColor"/>
</g>
<defs>
<clipPath id="clip0_518_1433">
<rect width="9.92" height="8.32" fill="white" transform="translate(3.03906 4.72083)"/>
</clipPath>
</defs>
</svg>
